# Blender v2.91.0 OBJ File: 'mandarin_tile.blend'
# www.blender.org
mtllib mandarin_tile.mtl
o Cylinder
v 0.000000 0.023151 -1.000000
v 0.000000 0.023151 1.000000
v -0.173648 0.023151 0.984808
v 0.000000 0.023151 -1.000000
v 0.984808 0.023151 -0.173648
v 0.000000 0.023151 1.000000
v -0.500000 0.023151 0.866026
v -0.642787 0.023151 0.766045
v -0.766044 0.023151 0.642788
v -0.866025 0.023151 0.500000
v -0.939692 0.023151 0.342021
v -0.984808 0.023151 0.173649
v -1.000000 0.023151 0.000000
v -0.984808 0.023151 -0.173648
v -0.939693 0.023151 -0.342020
v -0.866026 0.023151 -0.499999
v -0.766045 0.023151 -0.642787
v -0.642788 0.023151 -0.766044
v -0.500001 0.023151 -0.866025
v -0.342021 0.023151 -0.939692
v -0.173649 0.023151 -0.984808
v -0.009939 0.023151 0.989153
v -0.161976 0.023151 0.975851
v -0.009940 0.023151 0.195214
v -0.024110 0.023151 0.193974
v 0.000000 -0.005322 1.000000
v -0.000000 -0.005322 0.186106
v -0.173648 -0.005322 0.984808
v -0.032317 -0.005322 0.183279
v -0.032317 0.023151 0.183279
v -0.000000 0.023151 0.186106
v -0.173648 0.023151 0.984808
v 0.000000 0.023151 1.000000
v -0.024110 0.015244 0.193974
v -0.009940 0.015244 0.195214
v -0.161976 0.015244 0.975851
v -0.009939 0.015244 0.989153
v -0.073083 0.013636 0.787663
v -0.073083 0.020003 0.792111
v -0.051593 0.020003 0.796385
v -0.049891 0.013636 0.792276
v -0.033375 0.020003 0.808558
v -0.030230 0.013636 0.805413
v -0.021202 0.020003 0.826776
v -0.017093 0.013636 0.825074
v -0.016928 0.020003 0.848266
v -0.012480 0.013636 0.848266
v -0.021202 0.020003 0.869756
v -0.017093 0.013636 0.871458
v -0.033375 0.020003 0.887974
v -0.030230 0.013636 0.891119
v -0.051593 0.020003 0.900147
v -0.049891 0.013636 0.904256
v -0.073083 0.020003 0.904422
v -0.073083 0.013636 0.908870
v -0.094573 0.020003 0.900147
v -0.096275 0.013636 0.904256
v -0.112791 0.020003 0.887974
v -0.115936 0.013636 0.891119
v -0.124964 0.020003 0.869756
v -0.129073 0.013636 0.871458
v -0.129239 0.020003 0.848266
v -0.133687 0.013636 0.848266
v -0.124964 0.020003 0.826776
v -0.129073 0.013636 0.825074
v -0.112791 0.020003 0.808558
v -0.115936 0.013636 0.805413
v -0.094573 0.020003 0.796385
v -0.096275 0.013636 0.792276
v -0.115936 0.020003 0.891119
v -0.129073 0.020003 0.871458
v -0.012480 0.020003 0.848266
v -0.017093 0.020003 0.871458
v -0.096275 0.020003 0.904256
v -0.017093 0.020003 0.825074
v -0.073083 0.020003 0.908870
v -0.030230 0.020003 0.805413
v -0.049891 0.020003 0.904256
v -0.049891 0.020003 0.792276
v -0.030230 0.020003 0.891119
v -0.073083 0.020003 0.787663
v -0.133687 0.020003 0.848266
v -0.129073 0.020003 0.825074
v -0.115936 0.020003 0.805413
v -0.096275 0.020003 0.792276
v -0.112791 0.014666 0.887974
v -0.124964 0.014666 0.869756
v -0.016928 0.014666 0.848266
v -0.021202 0.014666 0.869756
v -0.094573 0.014666 0.900147
v -0.021202 0.014666 0.826776
v -0.073083 0.014666 0.904422
v -0.033375 0.014666 0.808558
v -0.051593 0.014666 0.900147
v -0.051593 0.014666 0.796385
v -0.033375 0.014666 0.887974
v -0.073083 0.014666 0.792111
v -0.129239 0.014666 0.848266
v -0.124964 0.014666 0.826776
v -0.112791 0.014666 0.808558
v -0.094573 0.014666 0.796385
vt 0.242244 0.206013
vt 0.250000 0.205335
vt 0.250000 0.205335
vt 0.242244 0.206013
vt 0.244214 0.203446
vt 0.211126 0.015796
vt 0.211126 0.015796
vt 0.244214 0.203446
vt 0.250000 0.010000
vt 0.250000 0.010000
vt 0.208325 0.013646
vt 0.208325 0.013646
vt 0.247615 0.203149
vt 0.247615 0.012603
vt 0.247615 0.203149
vt 0.247615 0.012603
vt 0.341844 0.471731
vt 0.250000 0.490000
vt 0.158156 0.471731
vt 0.080294 0.419706
vt 0.028269 0.341844
vt 0.010000 0.250000
vt 0.028269 0.158156
vt 0.080294 0.080294
vt 0.158156 0.028269
vt 0.250000 0.010000
vt 0.341844 0.028269
vt 0.419706 0.080294
vt 0.471731 0.158156
vt 0.490000 0.250000
vt 0.471731 0.341844
vt 0.419706 0.419706
vt 0.187500 0.500000
vt 0.187500 1.000000
vt 0.125000 1.000000
vt 0.125000 0.500000
vt 0.250000 0.500000
vt 0.250000 1.000000
vt 0.312500 0.500000
vt 0.312500 1.000000
vt 0.375000 0.500000
vt 0.375000 1.000000
vt 0.437500 0.500000
vt 0.437500 1.000000
vt 0.500000 0.500000
vt 0.500000 1.000000
vt 0.562500 0.500000
vt 0.562500 1.000000
vt 0.625000 0.500000
vt 0.625000 1.000000
vt 0.687500 0.500000
vt 0.687500 1.000000
vt 0.750000 0.500000
vt 0.750000 1.000000
vt 0.812500 0.500000
vt 0.812500 1.000000
vt 0.592750 0.092750
vt 0.544543 0.164897
vt 0.544543 0.164897
vt 0.592750 0.092750
vt 0.875000 0.500000
vt 0.875000 1.000000
vt 0.062500 0.500000
vt 0.062500 1.000000
vt 0.000000 1.000000
vt 0.000000 0.500000
vt 0.937500 0.500000
vt 0.937500 1.000000
vt 1.000000 0.500000
vt 1.000000 1.000000
vt 0.580294 0.080294
vt 0.528269 0.158156
vt 0.955457 0.164897
vt 0.972385 0.250000
vt 0.990000 0.250000
vt 0.971731 0.158156
vt 0.664897 0.044543
vt 0.658156 0.028269
vt 0.955457 0.335103
vt 0.971731 0.341844
vt 0.750000 0.027615
vt 0.750000 0.010000
vt 0.907250 0.407250
vt 0.919706 0.419706
vt 0.835103 0.044543
vt 0.841844 0.028269
vt 0.835103 0.455457
vt 0.841844 0.471731
vt 0.907250 0.092750
vt 0.919706 0.080294
vt 0.750000 0.472385
vt 0.750000 0.490000
vt 0.527615 0.250000
vt 0.510000 0.250000
vt 0.544543 0.335103
vt 0.528269 0.341844
vt 0.592750 0.407250
vt 0.580294 0.419706
vt 0.664897 0.455457
vt 0.658156 0.471731
vt 0.750000 0.472385
vt 0.835103 0.455457
vt 0.907250 0.407250
vt 0.955457 0.335103
vt 0.972385 0.250000
vt 0.955457 0.164897
vt 0.907250 0.092750
vt 0.835103 0.044543
vt 0.750000 0.027615
vt 0.664897 0.044543
vt 0.527615 0.250000
vt 0.544543 0.335103
vt 0.592750 0.407250
vt 0.664897 0.455457
vn 0.0872 0.0000 -0.9962
vn 0.9848 0.0000 0.1736
vn 1.0000 0.0000 -0.0000
vn 0.0000 -1.0000 0.0000
vn -0.9848 0.0000 -0.1736
vn -0.0872 0.0000 0.9962
vn 0.0000 1.0000 -0.0000
vn -1.0000 0.0000 0.0000
vn 0.8315 0.0000 0.5556
vn 0.9808 0.0000 0.1951
vn 0.9808 0.0000 -0.1951
vn 0.8315 0.0000 -0.5556
vn 0.5556 0.0000 -0.8315
vn 0.1951 0.0000 -0.9808
vn -0.1951 0.0000 -0.9808
vn -0.5556 0.0000 -0.8315
vn -0.8315 0.0000 -0.5556
vn -0.9808 0.0000 -0.1951
vn -0.9808 0.0000 0.1951
vn -0.8315 0.0000 0.5556
vn 0.1951 0.0000 0.9808
vn -0.5556 0.0000 0.8315
vn -0.1951 0.0000 0.9808
vn 0.5556 0.0000 0.8315
usemtl None
s off
f 30/1/1 31/2/1 27/3/1 29/4/1
f 25/5/2 23/6/2 36/7/2 34/8/2
f 31/2/3 33/9/3 26/10/3 27/3/3
f 27/3/4 26/10/4 28/11/4 29/4/4
f 32/12/5 30/1/5 29/4/5 28/11/5
f 33/9/6 32/12/6 28/11/6 26/10/6
f 25/5/7 24/13/7 31/2/7 30/1/7
f 22/14/7 23/6/7 32/12/7 33/9/7
f 24/13/7 22/14/7 33/9/7 31/2/7
f 23/6/7 25/5/7 30/1/7 32/12/7
f 35/15/7 34/8/7 36/7/7 37/16/7
f 23/6/1 22/14/1 37/16/1 36/7/1
f 22/14/8 24/13/8 35/15/8 37/16/8
f 24/13/6 25/5/6 34/8/6 35/15/6
f 41/17/7 38/18/7 69/19/7 67/20/7 65/21/7 63/22/7 61/23/7 59/24/7 57/25/7 55/26/7 53/27/7 51/28/7 49/29/7 47/30/7 45/31/7 43/32/7
f 83/33/9 65/34/9 67/35/9 84/36/9
f 82/37/10 63/38/10 65/34/10 83/33/10
f 71/39/11 61/40/11 63/38/11 82/37/11
f 70/41/12 59/42/12 61/40/12 71/39/12
f 74/43/13 57/44/13 59/42/13 70/41/13
f 76/45/14 55/46/14 57/44/14 74/43/14
f 78/47/15 53/48/15 55/46/15 76/45/15
f 80/49/16 51/50/16 53/48/16 78/47/16
f 73/51/17 49/52/17 51/50/17 80/49/17
f 72/53/18 47/54/18 49/52/18 73/51/18
f 75/55/19 45/56/19 47/54/19 72/53/19
f 58/57/20 60/58/20 87/59/20 86/60/20
f 77/61/20 43/62/20 45/56/20 75/55/20
f 85/63/21 69/64/21 38/65/21 81/66/21
f 79/67/22 41/68/22 43/62/22 77/61/22
f 81/69/23 38/70/23 41/68/23 79/67/23
f 84/36/24 67/35/24 69/64/24 85/63/24
f 60/58/4 58/57/4 70/71/4 71/72/4
f 48/73/4 46/74/4 72/75/4 73/76/4
f 58/57/4 56/77/4 74/78/4 70/71/4
f 46/74/4 44/79/4 75/80/4 72/75/4
f 56/77/4 54/81/4 76/82/4 74/78/4
f 44/79/4 42/83/4 77/84/4 75/80/4
f 54/81/4 52/85/4 78/86/4 76/82/4
f 42/83/4 40/87/4 79/88/4 77/84/4
f 52/85/4 50/89/4 80/90/4 78/86/4
f 50/89/4 48/73/4 73/76/4 80/90/4
f 40/87/4 39/91/4 81/92/4 79/88/4
f 62/93/4 60/58/4 71/72/4 82/94/4
f 64/95/4 62/93/4 82/94/4 83/96/4
f 66/97/4 64/95/4 83/96/4 84/98/4
f 68/99/4 66/97/4 84/98/4 85/100/4
f 39/91/4 68/99/4 85/100/4 81/92/4
f 97/101/4 95/102/4 93/103/4 91/104/4 88/105/4 89/106/4 96/107/4 94/108/4 92/109/4 90/110/4 86/60/4 87/59/4 98/111/4 99/112/4 100/113/4 101/114/4
f 68/99/15 39/91/15 97/101/15 101/114/15
f 50/89/24 52/85/24 94/108/24 96/107/24
f 46/74/10 48/73/10 89/106/10 88/105/10
f 48/73/9 50/89/9 96/107/9 89/106/9
f 56/77/22 58/57/22 86/60/22 90/110/22
f 39/91/14 40/87/14 95/102/14 97/101/14
f 44/79/11 46/74/11 88/105/11 91/104/11
f 60/58/19 62/93/19 98/111/19 87/59/19
f 54/81/23 56/77/23 90/110/23 92/109/23
f 62/93/18 64/95/18 99/112/18 98/111/18
f 42/83/12 44/79/12 91/104/12 93/103/12
f 64/95/17 66/97/17 100/113/17 99/112/17
f 52/85/21 54/81/21 92/109/21 94/108/21
f 66/97/16 68/99/16 101/114/16 100/113/16
f 40/87/13 42/83/13 93/103/13 95/102/13
l 3 2
l 6 2
l 4 1
